<svg xmlns="http://www.w3.org/2000/svg" enable-background="new 0 0 3000 3000" viewBox="0 0 3000 3000"><path fill="#eaeaea" fill-rule="evenodd" d="M1215.5 1820c-5.5-13-16.5-18.5-2.6-30 24.62-19.26 14.22-49.13 8.88-120.5-8.92 3.33-30.88 11.3-47.28 16.5s-60.5 18.5-80.5 24.5c-4.17 36.5-14.5 111.5-22.5 119.5-10 10-21 15.5-13.5 25s12.5 26 3.5 49.5 9.5 38.5-9 74c17.35 21-69 156-95 171.5s-50.5 2-56.61-12c-17.38-19.99-9.98-70.8 13.86-112-2.68-2.34-5.27-5-7.74-8-7.64-38.66-10.73-86.74-10.8-136.5l-12.35 14.5c-83.66 128.97-137.31 303.23-158.59 535.5-.91 9.89-1.76 19.89-2.54 30a2400.778 2400.778 0 0 0-2.71 39l662 76.5 1043.5-87.5c.34-7.24.66-14.41.96-21.5 22.13-530.9-86.33-638.88-151.46-667 19-77.5-63.6-233.4-546-237-18.91-.14-37.57-.09-56 .15h-18.18c-2.79 7.16-5.73 13.32-8.82 18.35-12.34 58.29-56.61 80.78-107 85.12-62.8 43.3-93.5 160.63-101 213.88l-88.5 29.59c-18.63 28.32-46.85 56.58-68 67.41-41 21-68.6 22.5-81.5-4.23-12.12-15.38-2.7-55.44 25-112.42-6.87-2.24-13.14-4.62-18.74-6.75l-.26-.1c-23.02-37 14.98-22 9.48-35z" clip-rule="evenodd"/><path fill="#eaeaea" d="M2425.5 2489.5 1382 2577v194.5l1083-129v-119c0-55.5-25.5-55.5-38.54-55.5-.3 7.09-.62 14.26-.96 21.5zM1382 2577l-662-76.5c.41-6.71.85-13.38 1.31-20-42.81 0-26.81 109.5-25.31 161l686 130V2577zM1380 1707.5c3.2 42.4-1.33 95.33-4 116.5-3.69 3.51-7.36 6.78-11 9.82 0 2.85-.74 6.83-2.2 11.68 13.22 12.35 4.19 39-13.3 65.59l88.5-29.59c7.5-53.25 38.2-170.58 101-213.88-53.78 4.64-114.53-11.39-150.85-26.62-5.17 19.88-10.08 40.99-8.15 66.5z"/><path fill="#c4c4c4" d="M2142.5 2407.5c-173.9 52.53-386.13-57.5-471.79-252.14C1592 1976.5 1657.1 1747.03 1831 1694.5c27.09-8.18 55.13-12.39 83.5-12.88-87.81-13.93-161.5 22.62-244 94.25s-127.88 265.26-65.66 406.65c85.66 194.65 297.89 304.67 471.79 252.15l65.87-27.17z"/><path fill="#fff" d="M1255.5 1969c-29.11 14.76-47.27 15.7-55.5 5.27 12.9 26.73 40.5 25.23 81.5 4.23 21.15-10.83 49.37-39.09 68-67.41 17.49-26.59 26.52-53.24 13.3-65.59-8.98 29.77-45.38 92.11-107.3 123.5zM1052.5 1978.5c-3.62 6.94-9.65 14.79-17.35 22.5-22.21 47.17-75.45 142.3-110.65 145.5-10.43.95-18.22-2.29-23.61-8.5 6.11 14 30.61 27.5 56.61 12s112.35-150.5 95-171.5z"/><path fill="#3e9f8e" d="M1035.15 2001c-29.51 29.57-83.56 57.23-120.41 25-23.84 41.2-31.24 92.01-13.86 112 5.4 6.21 13.19 9.45 23.61 8.5 35.21-3.2 88.45-98.33 110.66-145.5zM1365 1833.82c-56.01 46.78-105.54 39.26-140 28.03-27.7 56.98-37.12 97.04-25 112.42 8.23 10.43 26.39 9.49 55.5-5.27 61.92-31.39 98.32-93.73 107.3-123.5 1.46-4.85 2.2-8.83 2.2-11.68z"/><path fill="#8d4040" d="M1227.4 1480.5c-190.4 26-279.4 55-302.9 126.5-13.05 39.72-28.47 161.45-28.3 274.5.07 49.76 3.16 97.84 10.8 136.5 2.48 3 5.07 5.66 7.74 8 36.84 32.23 90.9 4.57 120.41-25 7.7-7.71 13.73-15.56 17.35-22.5 18.5-35.5 0-50.5 9-74s4-40-3.5-49.5 3.5-15 13.5-25c8-8 18.33-83 22.5-119.5 20-6 64.1-19.3 80.5-24.5s38.36-13.17 47.28-16.5c-3.32-44.43-4.67-104.95 5.62-189z"/><path fill="#8d4040" fill-rule="evenodd" d="M1646 1582.5c-17.08-30-13.5-72-55-72-31.06-34.75-61.46-69.2-91.5-99.64-8.69-8.81-17.36-17.29-26-25.34-31.86-29.67-63.4-53.56-95-67.18-30.35-13.08-60.74-16.69-91.5-6.84-13.5 3-38.5 23.5-39 46.5-9.55 45.61-16.16 86.24-20.6 122.5-10.29 84.05-8.94 144.57-5.62 189 5.34 71.37 15.74 101.24-8.88 120.5-13.9 11.5-2.9 17 2.6 30s-32.5-2-9.5 35l.26.1c5.6 2.13 11.87 4.51 18.74 6.75 34.46 11.23 83.99 18.75 140-28.03 3.64-3.04 7.31-6.31 11-9.82 2.67-21.17 7.2-74.1 4-116.5-1.93-25.51 2.98-46.62 8.15-66.5 36.32 15.23 97.07 31.26 150.85 26.62 50.39-4.34 94.66-26.83 107-85.12z" clip-rule="evenodd"/><path fill="#c4c4c4" fill-rule="evenodd" d="M347.41 1323.08c-15.94 30.92-24.54 57.38-26.24 79.67-1.42 18.63 1.98 34.82 10.34 47.82-17.48 43.42-25.56 90.78-22.47 135.46 2.31 33.49 20.03 57.24 45.45 71.63-5.31 17.15-8.34 35.12-8.49 53.72-.32 40.45 9.55 73.62 27.15 99.51 14.22 20.92 33.08 36.49 54.49 47.24-5.2 10.75-9.35 22.04-12.21 33.83-14.48 59.61-12.32 108.61 7.89 143.34 17.55 30.16 47.08 46.89 84.18 51.28-13.71 40.35-15.97 81.38-6.52 114.39 5.53 19.33 15.28 36.53 29.81 48.79 14.73 12.43 33.49 19 55.25 18.23 3.3-.12 6.56-.32 9.8-.61-2.5 65.85 20.8 138.14 97.05 179.32l29.85 14.8c.79-10.11 1.64-20.11 2.54-30l-18.14-11.2c-65.54-35.4-85.08-98.29-80.99-158.25 41.07-10.83 75.15-35.01 93.79-62.11 10.14-14.74 16.48-31.53 15.3-48.21-1.23-17.44-10.54-32.61-27.35-42.99-13.59-8.39-28.34-6.5-40.69.18-11.87 6.42-22.63 17.65-31.79 30.93-16.79 24.35-30.61 59.13-36.58 97.03-4.54.58-9.16.96-13.84 1.13-14.73.52-26.11-3.81-34.85-11.18-8.94-7.54-16-19.06-20.31-34.11-8.07-28.2-5.75-66.58 9.27-105.25 32.04-1.68 68.67-10.62 108.92-26.52 41.72-16.48 69.11-35.62 83.61-55.03 7.32-9.8 11.82-20.31 12.37-30.96.57-10.93-3.1-20.94-10.21-28.74-13.69-15.05-37.37-19.59-62.21-15.64-25.57 4.07-55.35 17.37-85.62 42.35-29.52 24.36-51.55 53.89-66.5 84.6-34.52-1.91-57.41-15.32-70.22-37.32-14.55-25-18.36-64.8-4.66-121.17 2.51-10.32 6.26-20.3 11.09-29.91 39.61 11.65 84.47 10.05 125.74-2.02 45.66-13.34 88.45-39.94 115.76-77.84 9.94-13.8 16.28-27.11 17.07-39.57.89-13.87-5.22-25.18-16.18-32.12-9.83-6.23-22.52-8.34-35.23-8.39-13.05-.05-27.9 2.08-43.47 5.97-58.05 14.5-134.18 55.59-176.54 117.01-18.05-8.73-33.44-21.35-44.85-38.14-13.66-20.11-22.24-47.09-21.96-82.41.11-14.57 2.36-28.8 6.39-42.6 42.19 11.72 95.83 6.04 144.32-12.97 54.75-21.46 106.42-61.25 129.66-117.85 6.97-16.97 9.69-32.78 6.2-46.45-3.74-14.64-13.91-24.29-26.86-29.25-12.29-4.7-27.01-5.25-42.11-3.37-15.32 1.9-32.23 6.47-49.64 13.16-64.49 24.8-142.59 81.65-178.39 157.05-15.7-10.09-25.2-24.99-26.61-45.37-2.51-36.34 3.27-75.17 16.38-111.7 10.65 5.72 22.91 8.94 35.72 10.32 20.9 2.25 44.78-.2 69.37-5.99 75.36-17.73 131.4-62.5 150.54-104.72 9.63-21.25 11.12-45.51-5.33-63.4-15.53-16.89-42.71-22.93-77.43-19.92-79.08 6.83-140.07 57.68-177.36 122.24 0-1.84.08-3.75.23-5.77 1.28-16.78 8.05-39.2 23-68.2 40.3-78.18 140.92-194.33 228.57-268.26-1.8-14.29-1.8-29.13-.75-44.07-99.62 92.25-191.29 175.96-254.5 298.58zm347.8 859.86c-12.48 18.14-35.46 36.04-64.49 46.33 6.12-28.96 17.12-54.61 29.38-72.39 7.74-11.22 15.26-18.27 21.36-21.57 5.63-3.05 8.56-2.34 10.66-1.05 9.29 5.74 12.69 12.56 13.18 19.57.55 7.77-2.38 17.89-10.09 29.11zm-58.22-149.89c-30.9 12.21-58.57 19.69-82.71 22.89 12.65-21.74 29.52-42.34 50.76-59.87 26.98-22.27 51.95-32.79 71.24-35.86 20.02-3.18 31.31 1.81 35.3 6.2 1.74 1.91 2.59 4.1 2.44 6.99-.17 3.18-1.64 8.13-6.45 14.57-9.75 13.07-31.3 29.56-70.58 45.08zm-64-194.73c-33.79 9.88-69.35 11.55-100.64 4.2 37.95-50.14 103.17-85.49 154.28-98.25 13.9-3.47 26.19-5.12 36.09-5.08 10.24.04 16.34 1.87 19.29 3.73 1.81 1.15 2.47 2.07 2.3 4.86-.27 4.2-2.84 11.97-11.47 23.95-22.64 31.41-59.2 54.71-99.85 66.59zm-57.23-210.2c-43.43 17.02-88.72 21.2-122.45 12.76 31.82-65.71 101.94-117.72 161.42-140.59 15.73-6.05 30.23-9.86 42.58-11.39 12.56-1.57 21.78-.64 27.69 1.62 5.25 2.01 7.53 4.81 8.51 8.64 1.22 4.81.92 13.52-4.88 27.64-19.2 46.73-63.08 81.8-112.87 101.32zm-121.49-175.36c-11.63-1.25-20.63-4.2-27.26-8.4 32.52-67.61 90.14-119.55 163.78-125.92 31.78-2.74 46.85 3.91 52.77 10.35 5 5.43 7.14 15.14.09 30.7-14.24 31.41-60.95 71.64-130.09 87.91-22.5 5.29-42.8 7.13-59.29 5.36z" clip-rule="evenodd"/><path fill="#c4c4c4" d="M1070.02 844.05c-8.39-23.32-25.91-41.84-49.87-55.07 15.3-74.66 49.41-127.26 141.85-181.35 33.64-19.68 75.01-39.56 126-60.77 59.42-24.72 131.92-51.24 220.5-81.36 87.58-25.27 172.61-43.27 249-53.35 40.19-5.3 77.98-8.41 112.5-9.23 150.47-3.58 238.7 36.31 191.36 127.58-23.64 29.6-35.51 59.89-32.23 87.5.58 4.91 1.64 9.74 3.2 14.46 25.18 76.2 170.53 96.68 324.63 45.75 129.05-42.65 223.32-121.84 235.78-191.22 2.43-13.47 1.76-26.58-2.33-38.97C2538.5 255 2184.5 129.5 1668.5 223S512 584 597.36 1014.01a89.76 89.76 0 0 0 4.55 10.49c35.26 69 157.72 89.31 282.14 44.57 123.34-44.35 204.48-136.77 189.56-212.07-.87-4.38-2.06-8.7-3.59-12.95z"/><path fill="#c4c4c4" d="M884.05 1069.07c-124.42 44.74-246.88 24.43-282.14-44.57-1.05 14.94-1.05 29.78.75 44.07 5.96 47.38 31.63 88.72 103.85 107.93 94 25 305.07-29 388.5-162.49C1141.88 939 1106.57 868 1073.61 857c14.92 75.3-66.22 167.72-189.56 212.07zM2356.96 678.22c-154.1 50.93-299.45 30.44-324.63-45.75a73.451 73.451 0 0 1-3.2-14.46c-5.88 28-10.73 91.7 16.87 122.5 34.5 38.5 135 100 310.96 50.5 175.97-49.5 272.54-136 235.78-304-12.46 69.36-106.73 148.56-235.78 191.21z"/><path fill="#8d4040" d="M1598.5 911c4-11.83 15.1-29.7 27.5-6.5 1.14 2.12 2.11 4.3 2.92 6.5 3.01 8.14 3.82 16.66 2.65 24.5l28.06-69.5c15.51-38.43-3.71-62.7-19.63-59-.5-76-113.5-84.5-141.5-80-22.4 3.6-33.67-3.5-36.5-7.5l-5.5 18.5c-5.33-1.17-15.4-7.7-13-24.5-26.4 20.8-24.67 50.33-20.5 62.5l-19 34.5 15.5-3.5c-5 8.33-10.24 26.5 8.78 32.5-.28-4.09-.69-8.26-1.28-12.5 12.33-9.33 40.1-26.4 52.5-20s76.17 13.67 106.5 16.5l-14.5 8.5 19.5 7.5c-1.6 11.2 4.33 52.33 7.5 71.5z"/><path fill="#3e9f8e" d="M1352.5 944c11.07-15.36 17.34-29.29 20.94-40.5l-9.44-8-8.5-10c4.33-2.67 15-8.5 23-8.5 13.88 15.34 23.78 33.66 33.63 51.88 3.57 6.6 7.13 13.19 10.87 19.62 0 19.32 33.53 66 83 65.93 3.47 6.07 10.14 16.76 16.45 24.57-11.45 19.5 10.05 21.5 56.55-29.5l21.5-43.43c6.18-.36 11.54-2.22 16-5.18 8.31-5.51 13.49-14.83 15.07-25.39l28.06-69.5 27.15-46.5c-3.19 9.68-6.14 18.4-8.78 26-6.67 21.17-13.2 67.7 14 84.5s59-10.67 71.5-26.5c-10.5 35.17-36.9 117.1-58.5 163.5-1.24 132.03-13.14 402.3-50.18 497.15-2.79 7.16-5.73 13.32-8.82 18.35-5.03-8.84-8.27-18.73-11.4-28.27-7.49-22.84-14.33-43.73-43.6-43.73-3.28-3.67-6.55-7.34-9.82-11l-.07-.08c-27.63-30.96-54.76-61.36-81.61-88.56-8.69-8.81-17.36-17.29-26-25.34-31.86-29.67-63.4-53.56-95-67.18 2.67-21.78 8.59-59.18 18-104.52V1117l-94-140.13c9.41 5.7 31.67-7.43 50-32.87z"/><path fill="#f0a58c" d="M1678 845.5c-6.67 21.17-13.2 67.7 14 84.5s59-10.67 71.5-26.5c17.5-49.17 54.3-169.4 61.5-257s18.33-156.5 23-180c20.4-16.8 23.17-49.38 22-63.58-34.52.82-72.31 3.93-112.5 9.23-1 13.66 0 34.35 17 54.35-14.35 113.69-60.04 269.1-87.72 353-3.19 9.68-6.14 18.4-8.78 26zM1352.5 944c11.07-15.36 17.34-29.29 20.94-40.5l-13.44-13-44.5-51c-15-73.83-39.5-63.5-45-239.5 6-15.1 17.9-46.86 17.5-53.14-50.99 21.21-92.36 41.09-126 60.77 14.4 17.1 30 19.04 36 17.87 5.33 59.54 21.7 195.9 44.5 265 7.18 21.92 41.29 75.06 60 86.38 9.41 5.69 31.67-7.44 50-32.88z"/><path fill="#f0a58c" fill-rule="evenodd" d="M1527.5 1011.5c30-8.11 62.67-36.17 63.5-46 3.35.57 6.52.74 9.5.57 6.18-.36 11.54-2.22 16-5.18 8.31-5.51 13.49-14.83 15.07-25.39 1.17-7.84.36-16.36-2.65-24.5-.81-2.2-1.78-4.37-2.92-6.5-12.4-23.2-23.5-5.33-27.5 6.5-3.17-19.17-9.1-60.3-7.5-71.5l-19.5-7.5 14.5-8.5c-30.33-2.83-94.1-10.1-106.5-16.5s-40.17 10.67-52.5 20c.59 4.24 1 8.41 1.28 12.5 2.75 41.27-8.92 75.34-5.28 109 0 19.32 33.53 66 83 65.93 6.87 0 14.06-.92 21.5-2.93zm-66-50.61c35.6 0 78.17-16.93 95-25.39-.51 3.79-1.39 8.25-2.64 13-4.87 18.42-15.41 41.16-32.36 46-10.13 2.9-22.48 2.53-33.5-2.17-8.41-3.59-16.04-9.7-21.33-18.83-2.14-3.7-3.9-7.89-5.17-12.61z" clip-rule="evenodd"/><path fill="#f0a58c" d="M1591 965.5c-.83 9.83-33.5 37.89-63.5 46-7.44 2.01-14.63 2.93-21.5 2.93 3.47 6.07 10.14 16.76 16.45 24.57-11.45 19.5 10.05 21.5 56.55-29.5l21.5-43.43c-2.98.17-6.15 0-9.5-.57z"/><path fill="#8d4040" d="M1521.5 994.5c16.95-4.84 27.49-27.58 32.36-46-6.4 2.95-15.78 6.9-26.36 10.8-7.67 5.4-26.3 19.57-39.5 33.03 11.02 4.7 23.37 5.07 33.5 2.17z"/><path fill="#2a1c1c" d="M1466.67 973.5c5.29 9.12 12.92 15.24 21.33 18.83 13.2-13.46 31.83-27.63 39.5-33.03-19.95 7.34-44.19 14.46-60.83 14.2z"/><path fill="#fff" d="M1556.5 935.5c-16.83 8.46-59.4 25.39-95 25.39 1.27 4.72 3.03 8.91 5.17 12.61 16.64.26 40.88-6.86 60.83-14.2 10.58-3.89 19.96-7.85 26.36-10.8 1.25-4.75 2.13-9.21 2.64-13z"/><path fill="#2a1c1c" d="M1448.17 884.96c2.75.25 5.35-3.55 5.81-8.5.46-4.95-1.4-9.17-4.15-9.42-2.75-.25-5.35 3.55-5.81 8.5s1.4 9.17 4.15 9.42zM1534.98 889.38c2.75.25 5.35-3.55 5.8-8.5.46-4.95-1.4-9.17-4.15-9.42-2.75-.25-5.35 3.55-5.8 8.5-.46 4.95 1.4 9.17 4.15 9.42z"/><path fill="none" stroke="#2b1c1c" stroke-width="10" d="M1070.02 844.04a90 90 0 0 1 3.59 12.96c14.92 75.3-66.22 167.72-189.56 212.07-124.42 44.74-246.88 24.43-282.14-44.57a89.76 89.76 0 0 1-4.55-10.49m1993.05-565.98c4.09 12.39 4.76 25.49 2.33 38.97-12.46 69.37-106.73 148.57-235.78 191.22-154.1 50.93-299.45 30.44-324.63-45.75a73.451 73.451 0 0 1-3.2-14.46M1598.5 951c4.67 2 12.6-4.7 7-13.5-7-11 1-17.5 11-28m-220 207.5-12-105.5m408.5-545c9.2 3.2 27.5 2.67 35.5 2m-380 553.5c-23.09 66.38-40.26 135.28-52 191.82m239-180.32c0 68 32.5 94 56.5 61m-218.5 291.02c14.4-37.62 32.33-74.35 39.5-88.02m-13.5 113.36 19-47.36m-12.5-349.07c6.87 0 14.06-.92 21.5-2.93 18.88-5.11 38.82-18.11 51.21-29.5m-28.71 98 14.5-35.25m26.5-11.25c-2.19 9.58-4 18.07-5.5 25.54M1475 894.5c2 13.5-13 14.5-13.5 24.5-.4 8 11.17 11.67 17 12.5m40-85c2.5-14.5 24-11.5 28 0m-105.5 4c1.6-14.8 19.33-16.17 28-15m-58.5 614.5c-3.57 17.52-9.06 49.52-11.85 79.5m-10.5 111.5c5.56-21.43 11.42-41.44 9.35-64-1.19-12.89-.49-29.85 1.15-47.5m39.35-88c0 34-26.23 72.83-39.35 88m11.85 33c0 30.8 36.33 58.5 54.5 68.5m-237.6-150.5c-10.29 84.05-8.94 144.57-5.62 189m-228.28 127c29.6-5.2 64.33-49.83 78-71.5m-147 99c0 51.6 24 110.5 36 133.5m283-160c-12.5-2.5-22 19 32.5 30 30.63 6.13 37.94-20.69 8.74-35.18m29.76-7.32c-9.93 4.97-20.34 6.97-29.76 7.32M1270 1755c20 0 46-20.33 56.5-30.5M1382 2577l1043.5-87.5c.34-7.24.66-14.41.96-21.5M1382 2577l-662-76.5c.41-6.71.85-13.38 1.31-20M1382 2577v194.5m0-194.5c-23.06-191.55-35.43-377.9 9.5-576m685.13 433.67 65.87-27.17c173.9-52.53 225.34-268 157.97-442.36-69.2-179.1-232.22-286.13-385.97-283.52m-375.5-14c-62.8 43.3-93.5 160.63-101 213.88l-88.5 29.59m-425 271.43c17 99.98 331 111.98 402-181.52m-318-1172.5c-14.8 38-.17 74.17 9 87.5M2136 461c41.2 17.2 121.17 7.17 156 0M1284.74 1792.32c-4.16-2.07-9.06-3.89-14.74-5.32-34.51-8.71-14.71 6.4 14.74 5.32z"/></svg>